<svg width="24" height="23" viewBox="0 0 24 23" fill="none" xmlns="http://www.w3.org/2000/svg">
<path d="M2.00084 22.3069L1.99337 22.3067C1.98433 22.3064 1.96887 22.3058 1.94792 22.3044C1.90587 22.3015 1.84272 22.2956 1.76572 22.2834C1.60924 22.2586 1.40871 22.21 1.21458 22.1178C1.02182 22.0262 0.847975 21.8978 0.72182 21.718C0.598763 21.5426 0.5 21.2886 0.5 20.9064C0.5 20.0928 0.943985 18.3233 2.59443 16.7549C4.23187 15.1989 7.09829 13.8041 12 13.8041C16.9017 13.8041 19.7681 15.1989 21.4056 16.7549C23.056 18.3233 23.5 20.0928 23.5 20.9064C23.5 21.2886 23.4012 21.5426 23.2782 21.718C23.152 21.8978 22.9782 22.0262 22.7854 22.1178C22.5913 22.21 22.3908 22.2586 22.2343 22.2834C22.1573 22.2956 22.0941 22.3015 22.0521 22.3044C22.0412 22.3051 22.0318 22.3057 22.024 22.306C22.0168 22.3064 22.011 22.3066 22.0066 22.3067L21.9992 22.3069L21.9985 22.307L21.9981 22.3069H2.00193L2.00151 22.307L2.00084 22.3069ZM15.8982 9.37103C14.8685 10.3496 13.4667 10.9035 12 10.9035C10.5333 10.9035 9.13151 10.3496 8.10179 9.37103C7.07293 8.39332 6.5 7.07286 6.5 5.70174C6.5 4.33062 7.07293 3.01016 8.10179 2.03245C9.13151 1.05391 10.5333 0.5 12 0.5C13.4667 0.5 14.8685 1.05391 15.8982 2.03245C16.9271 3.01016 17.5 4.33062 17.5 5.70174C17.5 7.07286 16.9271 8.39332 15.8982 9.37103Z" stroke="#595FEB"/>
</svg>
